<?xml version="1.0" encoding="UTF-8" standalone="no"?>
<svg
   viewBox="0 0 512 512"
   version="1.1"
   id="svg1"
   sodipodi:docname="icon.svg"
   xml:space="preserve"
   inkscape:version="1.4.2 (f4327f4, 2025-05-13)"
   xmlns:inkscape="http://www.inkscape.org/namespaces/inkscape"
   xmlns:sodipodi="http://sodipodi.sourceforge.net/DTD/sodipodi-0.dtd"
   xmlns:xlink="http://www.w3.org/1999/xlink"
   xmlns="http://www.w3.org/2000/svg"
   xmlns:svg="http://www.w3.org/2000/svg"><defs
     id="defs1"><linearGradient
       id="swatch11"
       inkscape:swatch="solid"><stop
         style="stop-color:#141414;stop-opacity:1;"
         offset="0"
         id="stop11" /></linearGradient><inkscape:path-effect
       effect="bspline"
       id="path-effect11"
       is_visible="true"
       lpeversion="1.3"
       weight="33.333333"
       steps="2"
       helper_size="0"
       apply_no_weight="true"
       apply_with_weight="true"
       only_selected="false"
       uniform="false" /><inkscape:path-effect
       effect="bspline"
       id="path-effect10"
       is_visible="true"
       lpeversion="1.3"
       weight="33.333333"
       steps="2"
       helper_size="0"
       apply_no_weight="true"
       apply_with_weight="true"
       only_selected="false"
       uniform="false" /><inkscape:path-effect
       effect="powerstroke"
       message=""
       id="path-effect9"
       is_visible="true"
       lpeversion="1.3"
       scale_width="1"
       interpolator_type="CentripetalCatmullRom"
       interpolator_beta="0.75"
       start_linecap_type="round"
       end_linecap_type="round"
       offset_points="21.789727,5.7251908"
       linejoin_type="spiro"
       miter_limit="4"
       not_jump="true"
       sort_points="true" /><inkscape:path-effect
       effect="simplify"
       id="path-effect8"
       is_visible="true"
       lpeversion="1.3"
       threshold="0.012"
       steps="1"
       smooth_angles="0"
       helper_size="0"
       simplify_individual_paths="false"
       simplify_just_coalesce="false"
       step="1" /><inkscape:path-effect
       effect="powerstroke"
       message=""
       id="path-effect7"
       is_visible="true"
       lpeversion="1.3"
       scale_width="1"
       interpolator_type="CentripetalCatmullRom"
       interpolator_beta="0.75"
       start_linecap_type="round"
       end_linecap_type="round"
       offset_points="38.5,7.6335878"
       linejoin_type="spiro"
       miter_limit="4"
       not_jump="true"
       sort_points="true" /><inkscape:path-effect
       effect="simplify"
       id="path-effect6"
       is_visible="true"
       lpeversion="1.3"
       threshold="0.012"
       steps="1"
       smooth_angles="0"
       helper_size="0"
       simplify_individual_paths="false"
       simplify_just_coalesce="false"
       step="1" /><inkscape:path-effect
       effect="spiro"
       id="path-effect5"
       is_visible="true"
       lpeversion="1" /><inkscape:path-effect
       effect="fillet_chamfer"
       id="path-effect3"
       is_visible="true"
       lpeversion="1"
       nodesatellites_param="F,0,0,1,0,0,0,1 @ F,0,0,1,0,0,0,1 @ F,0,0,1,0,0,0,1 @ F,0,0,1,0,0,0,1"
       radius="0"
       unit="px"
       method="auto"
       mode="F"
       chamfer_steps="1"
       flexible="false"
       use_knot_distance="true"
       apply_no_radius="true"
       apply_with_radius="true"
       only_selected="false"
       hide_knots="false" /><linearGradient
       id="swatch3"
       inkscape:swatch="solid"><stop
         style="stop-color:#000000;stop-opacity:1;"
         offset="0"
         id="stop3" /></linearGradient><inkscape:path-effect
       effect="fillet_chamfer"
       id="path-effect3-2"
       is_visible="true"
       lpeversion="1"
       nodesatellites_param="F,0,0,1,0,0,0,1 @ F,0,0,1,0,0,0,1 @ F,0,0,1,0,0,0,1 @ F,0,0,1,0,0,0,1"
       radius="0"
       unit="px"
       method="auto"
       mode="F"
       chamfer_steps="1"
       flexible="false"
       use_knot_distance="true"
       apply_no_radius="true"
       apply_with_radius="true"
       only_selected="false"
       hide_knots="false" /><inkscape:path-effect
       effect="fillet_chamfer"
       id="path-effect3-2-1"
       is_visible="true"
       lpeversion="1"
       nodesatellites_param="F,0,0,1,0,0,0,1 @ F,0,0,1,0,0,0,1 @ F,0,0,1,0,0,0,1 @ F,0,0,1,0,0,0,1"
       radius="0"
       unit="px"
       method="auto"
       mode="F"
       chamfer_steps="1"
       flexible="false"
       use_knot_distance="true"
       apply_no_radius="true"
       apply_with_radius="true"
       only_selected="false"
       hide_knots="false" /><linearGradient
       inkscape:collect="always"
       xlink:href="#swatch11"
       id="linearGradient37"
       x1="168.06264"
       y1="233.1328"
       x2="289.75064"
       y2="233.1328"
       gradientUnits="userSpaceOnUse" /></defs><sodipodi:namedview
     id="namedview1"
     pagecolor="#ffffff"
     bordercolor="#000000"
     borderopacity="0.25"
     inkscape:showpageshadow="2"
     inkscape:pageopacity="0.0"
     inkscape:pagecheckerboard="0"
     inkscape:deskcolor="#d1d1d1"
     inkscape:zoom="0.70710678"
     inkscape:cx="-92.630988"
     inkscape:cy="91.216775"
     inkscape:window-width="1920"
     inkscape:window-height="991"
     inkscape:window-x="-9"
     inkscape:window-y="-9"
     inkscape:window-maximized="1"
     inkscape:current-layer="layer1"
     inkscape:lockguides="true"
     showguides="false" /><rect
     width="512"
     height="512"
     rx="100"
     fill="#2563eb"
     id="rect1"
     style="display:inline;fill:#141414;fill-opacity:1"
     inkscape:label="fondo"
     sodipodi:insensitive="true"
     x="0"
     y="0" /><g
     inkscape:groupmode="layer"
     id="layer1"
     inkscape:label="letras"><g
       id="g13"
       inkscape:label="contorno"
       style="display:inline;stroke:none"
       transform="translate(-0.41386896)"><path
         d="m 159.91192,99.96875 -10.54297,7.60547 C 87.771742,151.998 59.996558,229.97319 79.640431,303.33398 c 19.643873,73.3608 82.668589,127.02398 158.222659,134.72266 75.55407,7.69868 148.10568,-32.1501 182.14258,-100.04102 34.0369,-67.89091 22.56049,-149.86595 -28.81055,-205.80078 l -8.79297,-9.57421 -19.14844,17.58593 8.79297,9.57617 c 25.16835,27.4043 39.17914,62.01656 41.14649,97.51954 H 395.6541 a 8.0521629,7.778996 0 0 0 -8.05273,7.77734 v 1.80078 a 8.0521629,7.778996 0 0 0 8.05273,7.7793 h 17.53907 c -1.1643,21.04269 -6.57999,42.03711 -16.42969,61.68359 -25.51634,50.89558 -76.08902,83.36579 -131.68945,86.4082 l 0.0664,-18.80859 a 7.778996,8.0521629 0.20166112 0 0 -7.75,-8.07812 l -1.80078,-0.006 a 7.778996,8.0521629 0.20166112 0 0 -7.80664,8.02343 l -0.0664,18.85743 c -2.40125,-0.13407 -4.80832,-0.32275 -7.21875,-0.56836 -64.8976,-6.61283 -118.86896,-52.56835 -135.74218,-115.58204 -2.8353,-10.58849 -4.52326,-21.28238 -5.117192,-31.92968 h 17.378902 a 8.0521629,7.778996 0 0 0 8.05079,-7.7793 v -1.80078 a 8.0521629,7.778996 0 0 0 -8.05079,-7.77734 H 99.634572 c 2.566678,-46.479 25.774518,-90.41166 64.943358,-118.66016 l 10.54297,-7.60547 z"
         style="baseline-shift:baseline;display:inline;overflow:visible;opacity:1;fill:#ffe900;stroke-linecap:round;paint-order:markers fill stroke;enable-background:accumulate;stop-color:#000000;stop-opacity:1;stroke:none;stroke-opacity:1;stroke-width:3;stroke-dasharray:none;stroke-linejoin:round"
         id="path30" /></g><g
       id="g15"
       inkscape:label="letras"
       style="display:inline"><path
         d="m 178.78125,75.314453 -0.0176,25.999997 13,0.01 51.26172,0.0332 -0.002,4.35156 -0.0469,224.0293 -0.004,13 26,0.006 0.004,-13 L 268.99023,269 h 4.92188 56.82226 6.13477 v 60.73437 13.00977 h 26.01758 V 329.73437 185.80664 172.79687 H 336.86914 V 185.80664 243 h -6.13477 -56.82226 -4.91797 l 0.0293,-137.28516 0.002,-4.34179 51.19336,0.0332 13,0.01 0.0176,-26.000004 -13,-0.0098 -128.45508,-0.08203 z"
         style="baseline-shift:baseline;display:inline;overflow:visible;opacity:1;vector-effect:none;fill:#ffe900;fill-opacity:1;stroke-linecap:square;paint-order:markers fill stroke;enable-background:accumulate;stop-color:#000000;stop-opacity:1"
         id="path35" /></g><g
       id="g14"
       inkscape:label="maneciyas"
       style="display:inline;paint-order:stroke fill markers;stroke-width:36;stroke-dasharray:none"><path
         d="m 438.42578,66.847656 -37.54297,8.257813 -37.63476,7.996093 21.16601,20.546878 -131.38281,136.13281 -68.67969,-55.54102 a 10,10 0 0 0 -6.0332,-2.22265 10,10 0 0 0 -1.30664,0.0527 10,10 0 0 0 -6.72461,3.65625 10,10 0 0 0 1.48828,14.06446 l 67.3125,54.4375 -13.73242,14.22851 a 13,13 0 0 0 -2.19336,14.99609 l -61.17969,61.73438 a 4,4 0 0 0 0.0274,5.6582 4,4 0 0 0 5.65625,-0.0254 L 228.8438,289.0859 a 13,13 0 0 0 15.2207,-2.57422 l 15.31836,-15.8711 14.07813,11.38477 a 10,10 0 0 0 14.06445,-1.48633 10,10 0 0 0 -1.48633,-14.06445 l -12.71289,-10.28125 129.68945,-134.37891 20.94532,20.57422 7.09961,-37.8125 z"
         style="baseline-shift:baseline;display:inline;overflow:visible;opacity:1;fill:#ffe900;fill-opacity:1;stroke:url(#linearGradient37);stroke-width:36;stroke-linecap:round;stroke-linejoin:round;stroke-dasharray:none;paint-order:stroke fill markers;enable-background:accumulate;stop-color:#000000;stop-opacity:1"
         id="path43" /><circle
         style="display:inline;opacity:1;fill:#141414;fill-opacity:1;fill-rule:nonzero;stroke:none;stroke-width:36;stroke-linecap:square;stroke-linejoin:miter;stroke-dasharray:none;stroke-opacity:1;paint-order:stroke fill markers"
         id="path15"
         cx="256"
         cy="256"
         r="6.5" /></g></g></svg>
